<svg xmlns="http://www.w3.org/2000/svg" xmlns:xlink="http://www.w3.org/1999/xlink" viewBox="0 0 1440 860" preserveAspectRatio="xMidYMid slice">
  <defs>
    <linearGradient id="sky" x1="0" y1="0" x2="0" y2="1">
      <stop offset="0" stop-color="#060b10"></stop>
      <stop offset="0.55" stop-color="#091611"></stop>
      <stop offset="1" stop-color="#0c1f18"></stop>
    </linearGradient>
    <radialGradient id="moonglow" cx="0.5" cy="0.5" r="0.5">
      <stop offset="0" stop-color="#e9f3dc" stop-opacity="0.2"></stop>
      <stop offset="1" stop-color="#e9f3dc" stop-opacity="0"></stop>
    </radialGradient>
    <mask id="crescent">
      <rect x="0" y="0" width="1440" height="860" fill="#ffffff"></rect>
      <circle cx="1268" cy="104" r="20" fill="#000000"></circle>
    </mask>
    <path id="leaf" d="M0 0C6-20 26-40 62-50 42-26 22-8 0 0Z"></path>
  </defs>
  <rect x="0" y="0" width="1440" height="860" fill="url(#sky)"></rect>
  <g fill="#f2eddc">
    <circle cx="80" cy="52" r="1" opacity="0.8"></circle>
    <circle cx="190" cy="130" r="0.7" opacity="0.6"></circle>
    <circle cx="300" cy="44" r="0.9" opacity="0.7"></circle>
    <circle cx="410" cy="96" r="0.6" opacity="0.5"></circle>
    <circle cx="520" cy="38" r="1.1" opacity="0.85"></circle>
    <circle cx="640" cy="120" r="0.6" opacity="0.5"></circle>
    <circle cx="760" cy="60" r="0.8" opacity="0.7"></circle>
    <circle cx="870" cy="140" r="0.6" opacity="0.5"></circle>
    <circle cx="980" cy="46" r="0.9" opacity="0.7"></circle>
    <circle cx="1090" cy="110" r="0.7" opacity="0.55"></circle>
    <circle cx="1180" cy="56" r="0.8" opacity="0.7"></circle>
    <circle cx="1380" cy="150" r="0.7" opacity="0.6"></circle>
    <circle cx="40" cy="220" r="0.7" opacity="0.5"></circle>
    <circle cx="250" cy="250" r="0.6" opacity="0.4"></circle>
    <circle cx="470" cy="210" r="0.8" opacity="0.5"></circle>
    <circle cx="700" cy="240" r="0.6" opacity="0.4"></circle>
    <circle cx="930" cy="230" r="0.7" opacity="0.45"></circle>
    <circle cx="1140" cy="260" r="0.6" opacity="0.4"></circle>
    <circle cx="1330" cy="300" r="0.8" opacity="0.5"></circle>
    <circle cx="120" cy="340" r="0.5" opacity="0.3"></circle>
    <circle cx="600" cy="360" r="0.5" opacity="0.3"></circle>
    <circle cx="1020" cy="380" r="0.5" opacity="0.3"></circle>
  </g>
  <g fill="#fbf4da" opacity="0.8">
    <path d="M520 38 L521.5 42 L526 43.5 L521.5 45 L520 49 L518.5 45 L514 43.5 L518.5 42 Z"></path>
    <path d="M870 182 L871 185 L874 186 L871 187 L870 190 L869 187 L866 186 L869 185 Z" opacity="0.7"></path>
    <path d="M300 160 L301 163 L304 164 L301 165 L300 168 L299 165 L296 164 L299 163 Z" opacity="0.7"></path>
  </g>
  <circle cx="1260" cy="110" r="90" fill="url(#moonglow)"></circle>
  <circle cx="1260" cy="110" r="22" fill="#efe9d2" opacity="0.88" mask="url(#crescent)"></circle>
  <path d="M0 700 C200 670 380 700 600 680 C820 660 1040 700 1260 676 C1340 668 1400 680 1440 674 L1440 860 L0 860 Z" fill="#0a1a14"></path>
  <g>
    <path d="M520 700 V650 Q520 636 536 636 H640 V600 Q640 540 760 510 Q880 540 880 600 V636 H984 Q1000 636 1000 650 V700 Z" fill="#0b1a15" stroke="#9fe2bc" stroke-opacity="0.14" stroke-width="1"></path>
    <path d="M640 636 V700 M880 636 V700 M760 510 V700 M700 524 V700 M820 524 V700 M580 636 V700 M940 636 V700" stroke="#9fe2bc" stroke-opacity="0.08" stroke-width="1" fill="none"></path>
    <rect x="720" y="650" width="40" height="50" fill="#f7dc92" opacity="0.06"></rect>
  </g>
  <path d="M0 730 C300 716 520 736 760 724 C1020 712 1220 734 1440 720 L1440 860 L0 860 Z" fill="#0a1d16"></path>
  <g fill="#081611">
    <use xlink:href="#leaf" href="#leaf" transform="translate(-10 840) rotate(-76) scale(3)"></use>
    <use xlink:href="#leaf" href="#leaf" transform="translate(-10 840) rotate(-54) scale(3.4)"></use>
    <use xlink:href="#leaf" href="#leaf" transform="translate(-10 840) rotate(-32) scale(3.2)"></use>
    <use xlink:href="#leaf" href="#leaf" transform="translate(-10 840) rotate(-10) scale(2.6)"></use>
    <use xlink:href="#leaf" href="#leaf" transform="translate(1450 840) rotate(-104) scale(3) scale(-1 1)"></use>
    <use xlink:href="#leaf" href="#leaf" transform="translate(1450 840) rotate(-126) scale(3.4) scale(-1 1)"></use>
    <use xlink:href="#leaf" href="#leaf" transform="translate(1450 840) rotate(-148) scale(3.2) scale(-1 1)"></use>
    <use xlink:href="#leaf" href="#leaf" transform="translate(1450 840) rotate(-170) scale(2.6) scale(-1 1)"></use>
  </g>
</svg>
